HIERARCHY
ROOT Hips
{
	OFFSET 0.000000 0.000000 0.000000
	CHANNELS 6 Xposition Yposition Zposition Zrotation Yrotation Xrotation 
	JOINT LHipJoint
	{
		OFFSET 0.000000 0.000000 0.000000
		CHANNELS 3 Zrotation Yrotation Xrotation
		JOINT LeftUpLeg
		{
			OFFSET 1.363060 -1.794630 0.839290
			CHANNELS 3 Zrotation Yrotation Xrotation
			JOINT LeftLeg
			{
				OFFSET 2.448110 -6.726130 0.000000
				CHANNELS 3 Zrotation Yrotation Xrotation
				JOINT LeftFoot
				{
					OFFSET 2.562200 -7.039590 0.000000
					CHANNELS 3 Zrotation Yrotation Xrotation
					JOINT LeftToeBase
					{
						OFFSET 0.157640 -0.433110 2.322550
						CHANNELS 3 Zrotation Yrotation Xrotation
						End Site
						{
							OFFSET 0.000000 0.000000 0.000000
						}
					}
				}
			}
		}
	}
	JOINT RHipJoint
	{
		OFFSET 0.000000 0.000000 0.000000
		CHANNELS 3 Zrotation Yrotation Xrotation
		JOINT RightUpLeg
		{
			OFFSET -1.305520 -1.794630 0.839290
			CHANNELS 3 Zrotation Yrotation Xrotation
			JOINT RightLeg
			{
				OFFSET -2.542530 -6.985550 0.000000
				CHANNELS 3 Zrotation Yrotation Xrotation
				JOINT RightFoot
				{
					OFFSET -2.568260 -7.056230 0.000000
					CHANNELS 3 Zrotation Yrotation Xrotation
					JOINT RightToeBase
					{
						OFFSET -0.164730 -0.452590 2.363150
						CHANNELS 3 Zrotation Yrotation Xrotation
						End Site
						{
							OFFSET 0.000000 0.000000 0.000000
						}
					}
				}
			}
		}
	}
	JOINT LowerBack
	{
		OFFSET 0.000000 0.000000 0.000000
		CHANNELS 3 Zrotation Yrotation Xrotation
		JOINT Spine
		{
			OFFSET 0.028270 2.035590 -0.193380
			CHANNELS 3 Zrotation Yrotation Xrotation
			JOINT Spine1
			{
				OFFSET 0.056720 2.048850 -0.042750
				CHANNELS 3 Zrotation Yrotation Xrotation
				JOINT Neck
				{
					OFFSET 0.000000 0.000000 0.000000
					CHANNELS 3 Zrotation Yrotation Xrotation
					JOINT Neck1
					{
						OFFSET -0.054170 1.746240 0.172020
						CHANNELS 3 Zrotation Yrotation Xrotation
						JOINT Head
						{
							OFFSET 0.104070 1.761360 -0.123970
							CHANNELS 3 Zrotation Yrotation Xrotation
							End Site
							{
								OFFSET 0.000000 0.000000 0.000000
							}
						}
					}
				}
				JOINT LeftShoulder
				{
					OFFSET 0.000000 0.000000 0.000000
					CHANNELS 3 Zrotation Yrotation Xrotation
					JOINT LeftArm
					{
						OFFSET 3.362410 1.200890 -0.311210
						CHANNELS 3 Zrotation Yrotation Xrotation
						JOINT LeftForeArm
						{
							OFFSET 4.983000 -0.000000 -0.000000
							CHANNELS 3 Zrotation Yrotation Xrotation
							JOINT LeftHand
							{
								OFFSET 3.483560 -0.000000 -0.000000
								CHANNELS 3 Zrotation Yrotation Xrotation
								JOINT LeftFingerBase
								{
									OFFSET 0.000000 0.000000 0.000000
									CHANNELS 3 Zrotation Yrotation Xrotation
									JOINT LeftHandIndex1
									{
										OFFSET 0.715260 -0.000000 -0.000000
										CHANNELS 3 Zrotation Yrotation Xrotation
										End Site
										{
											OFFSET 0.000000 0.000000 0.000000
										}
									}
								}
								JOINT LThumb
								{
									OFFSET 0.000000 0.000000 0.000000
									CHANNELS 3 Zrotation Yrotation Xrotation
									End Site
									{
										OFFSET 0.000000 0.000000 0.000000
									}
								}
							}
						}
					}
				}
				JOINT RightShoulder
				{
					OFFSET 0.000000 0.000000 0.000000
					CHANNELS 3 Zrotation Yrotation Xrotation
					JOINT RightArm
					{
						OFFSET -3.136600 1.374050 -0.404650
						CHANNELS 3 Zrotation Yrotation Xrotation
						JOINT RightForeArm
						{
							OFFSET -5.241900 -0.000000 -0.000000
							CHANNELS 3 Zrotation Yrotation Xrotation
							JOINT RightHand
							{
								OFFSET -3.444170 -0.000000 -0.000000
								CHANNELS 3 Zrotation Yrotation Xrotation
								JOINT RightFingerBase
								{
									OFFSET 0.000000 0.000000 0.000000
									CHANNELS 3 Zrotation Yrotation Xrotation
									JOINT RightHandIndex1
									{
										OFFSET -0.622530 -0.000000 -0.000000
										CHANNELS 3 Zrotation Yrotation Xrotation
										End Site
										{
											OFFSET 0.000000 0.000000 0.000000
										}
									}
								}
								JOINT RThumb
								{
									OFFSET 0.000000 0.000000 0.000000
									CHANNELS 3 Zrotation Yrotation Xrotation
									End Site
									{
										OFFSET 0.000000 0.000000 0.000000
									}
								}
							}
						}
					}
				}
			}
		}
	}
}
MOTION
Frames: 5
Frame Time: 0.008333
1.361123 15.344889 -1.048194 -110.507753 84.401046 -81.024514 -14.386229 0.164318 -5.572642 -5.516468 10.091361 -19.340445 -0.631504 2.953162 53.699753 1.815321 10.568987 -15.064387 -1.475800 0.000000 -58.592300 5.663612 -0.097231 -1.764967 16.956886 2.274405 -71.117774 2.736249 -5.443942 50.031574 1.485359 10.056273 -1.852387 1.034700 0.000000 -35.809801 11.414517 -2.165219 11.261592 1.916031 -2.167746 -0.765293 -4.610736 -2.085326 -0.633558 5.206529 -10.715778 -8.163537 -3.243729 -0.207856 -0.642172 0.000000 0.000000 0.000000 5.407864 11.015548 0.877637 -65.654153 -1.746959 2.698429 -177.680593 -62.249675 -179.978955 -2.231636 1.420364 -0.017320 0.010341 0.488760 0.000000 0.000000 0.000000 0.000000 0.000000 0.000000 0.000000 5.797549 -5.875121 0.990244 70.579666 -19.141860 -0.880932 0.092674 87.470214 -0.047281 -11.897753 4.906909 -0.550775 0.169782 -0.311742 -0.000000 0.000000 0.000000 0.000000 0.000000 0.000000 0.000000 
1.574685 15.309053 -1.072616 -111.886238 83.957768 -82.492301 -14.609029 0.125082 -5.550366 -4.900945 10.264516 -19.565218 -0.452719 3.094175 55.336628 1.945548 11.593130 -14.664567 -1.501400 0.000000 -52.809100 5.576701 -0.175037 -1.949078 17.478659 2.071126 -71.057956 2.597718 -5.595661 52.139635 1.403770 9.927134 -3.355952 0.808900 0.000000 -33.572100 11.802675 -2.127047 11.376187 2.012002 -2.122484 -0.777124 -4.534608 -2.045972 -0.760473 5.411163 -10.448334 -8.255989 -3.246320 -0.206509 -0.673089 0.000000 0.000000 0.000000 5.196523 10.988584 0.956127 -67.160331 -0.497298 3.028302 -177.804216 -62.825926 -179.978324 -2.291538 1.384058 -0.017234 0.020839 0.486352 0.000000 0.000000 0.000000 0.000000 0.000000 0.000000 0.000000 5.976608 -5.474213 1.054503 70.010516 -18.672572 -1.157770 0.098466 87.333368 -0.047296 -11.870872 4.937010 -0.552981 0.171348 -0.313563 -0.000000 0.000000 0.000000 0.000000 0.000000 0.000000 0.000000 
1.783070 15.278064 -1.097093 -113.466247 83.504190 -84.112507 -14.816301 0.068107 -5.521064 -4.342562 10.363410 -20.024745 -0.275278 3.250587 57.190461 2.112352 12.790014 -14.544004 -1.592600 -0.000000 -45.713400 5.492739 -0.258970 -2.116531 18.016276 1.847677 -70.955379 2.489050 -5.721388 54.000439 1.303168 9.684514 -4.928559 0.576400 -0.000000 -32.423100 12.156329 -2.076613 11.464662 2.093852 -2.066497 -0.790250 -4.485062 -1.995699 -0.881081 5.678912 -10.178284 -8.339188 -3.252446 -0.205505 -0.701659 0.000000 0.000000 0.000000 4.976803 10.957547 1.026819 -68.654745 0.661388 3.362725 -177.951668 -63.565300 -179.978534 -2.262947 1.375414 -0.017043 0.029228 0.482605 -0.000000 0.000000 0.000000 0.000000 0.000000 0.000000 0.000000 6.252107 -5.086246 1.117598 69.441122 -18.097158 -1.476863 0.105853 87.141414 -0.047592 -11.899982 4.942736 -0.555287 0.173719 -0.315267 -0.000000 0.000000 0.000000 0.000000 0.000000 0.000000 0.000000 
1.985988 15.252269 -1.120737 -115.273662 83.054876 -85.908622 -15.002945 -0.002113 -5.483948 -3.861445 10.386104 -20.715545 -0.101576 3.421380 59.216984 2.307787 14.109258 -14.686274 -1.753300 0.000000 -37.879700 5.417176 -0.340928 -2.265255 18.532065 1.608921 -70.813625 2.403000 -5.821603 55.609588 1.184554 9.333050 -6.490005 0.358900 -0.000001 -32.297100 12.460263 -2.013826 11.523174 2.157922 -2.000504 -0.804318 -4.465013 -1.935040 -0.991222 6.003593 -9.911407 -8.414203 -3.260853 -0.204750 -0.728017 0.000000 0.000000 0.000000 4.745096 10.932628 1.089356 -70.089551 1.705258 3.715269 -178.116651 -64.472768 -179.979525 -2.149995 1.380259 -0.016346 0.035274 0.477749 0.000000 0.000000 0.000000 0.000000 0.000000 0.000000 0.000000 6.614991 -4.718347 1.177347 68.895983 -17.421527 -1.844227 0.114730 86.898213 -0.048202 -11.988423 4.922875 -0.557594 0.176857 -0.316865 -0.000000 0.000000 0.000000 0.000000 0.000000 0.000000 0.000000 
2.183193 15.231818 -1.143027 -117.328062 82.618198 -87.900306 -15.166063 -0.081735 -5.437771 -3.469507 10.331237 -21.626541 0.069759 3.604682 61.364365 2.521752 15.492972 -15.019895 -1.975101 0.000000 -30.136800 5.353920 -0.413642 -2.394686 18.994808 1.359846 -70.637662 2.332516 -5.897138 56.972873 1.050350 8.881543 -7.969032 0.173500 0.000000 -33.029900 12.706494 -1.938875 11.549785 2.202608 -1.925400 -0.819076 -4.474894 -1.864812 -1.087962 6.372796 -9.654228 -8.481728 -3.269575 -0.204100 -0.752236 0.000000 0.000000 0.000000 4.496950 10.919295 1.144048 -71.421412 2.621470 4.099663 -178.292149 -65.550617 -179.981182 -1.963206 1.384896 -0.015144 0.038952 0.471987 0.000000 0.000000 0.000000 0.000000 0.000000 0.000000 0.000000 7.045311 -4.377225 1.232012 68.400488 -16.652346 -2.261817 0.124906 86.608331 -0.049160 -12.137185 4.877978 -0.559902 0.180667 -0.318407 -0.000000 0.000000 0.000000 0.000000 0.000000 0.000000 0.000000 
